<svg xmlns="http://www.w3.org/2000/svg" viewBox="0 0 501 308" width="501" height="308">
	<style>
		tspan { white-space:pre }
		.shp0 { fill: #034ea0 } 
		.shp1 { fill: #ec1b24 } 
	</style>
	<g id="Layer">
		<path id="Layer" fill-rule="evenodd" class="shp0" d="M458.27 97.42C469.6 97.41 478.8 106.59 478.81 117.92C478.83 129.25 469.65 138.45 458.32 138.46C446.98 138.48 437.79 129.3 437.77 117.97C437.79 106.65 446.96 97.48 458.28 97.45M458.28 100.72C448.75 100.71 441.02 108.42 441.01 117.95C441 127.48 448.72 135.21 458.25 135.22C467.78 135.22 475.5 127.5 475.5 117.97C475.49 108.46 467.79 100.75 458.28 100.72Z" />
		<path id="Layer" fill-rule="evenodd" class="shp0" d="M449.82 129L449.82 107.06L461.17 107.06C463.35 106.87 465.49 107.74 466.92 109.39C467.79 110.47 468.25 111.81 468.23 113.2C468.25 114.36 467.93 115.5 467.3 116.47C466.7 117.41 465.79 118.11 464.73 118.45C465.57 118.73 466.31 119.26 466.85 119.96C467.45 121.22 467.7 122.61 467.6 124C467.6 125.5 467.6 126.55 467.67 127.14C467.68 127.7 468.05 128.2 468.59 128.36L468.59 128.97L463.4 128.97C463.23 128.38 463.11 127.78 463.02 127.17C462.93 126.29 462.89 125.4 462.9 124.52C463.01 123.42 462.83 122.31 462.38 121.31C461.92 120.68 460.87 120.37 459.23 120.37L454.42 120.37L454.42 128.95L449.82 129ZM454.43 116.74L459.92 116.74C460.89 116.82 461.86 116.58 462.67 116.04C463.73 114.9 463.83 113.16 462.91 111.9C462.22 111.17 461.23 110.8 460.23 110.89L454.42 110.89L454.43 116.74Z" />
		<path id="Layer" fill-rule="evenodd" class="shp0" d="M312.7 18.84C369.95 12.65 421.31 51.8 418.74 113.72L452.42 71.04C437.27 20.23 374.96 -8.29 312.7 18.84Z" />
		<path id="Layer" fill-rule="evenodd" class="shp0" d="M329.56 144.52C335.36 137.45 339.01 129.51 339.54 120.32L359.32 120.32C355.64 129.34 348.88 138.44 343.59 144.53L329.56 144.52Z" />
		<path id="Layer" fill-rule="evenodd" class="shp0" d="M363.65 119.95C359.06 142.14 366.81 156.73 379.18 167.48C388.65 175.05 400.61 178.81 412.71 178.03C417.4 178.2 418.16 184.7 412.9 184.98L362.25 184.98L362.25 230.74L425.34 230.74C487.33 221.17 482.17 140.91 425.91 133.59C421.54 133.03 406.89 129.12 415.34 120.1L363.65 119.95Z" />
		<path id="Layer" class="shp0" d="M277.18 230.77L323.99 230.77L323.99 128.24L277.18 128.24L277.18 230.77Z" />
		<path id="Layer" fill-rule="evenodd" class="shp0" d="M196.08 84.87L242.89 84.87L242.89 120.42L265.51 120.42L265.51 156.37L242.91 156.37L242.91 176.5C243.41 181.25 246.58 183.65 249.95 184.98L272.12 184.98L265.67 230.74L238.09 230.74C215.69 229.63 197.2 211.42 196.08 187.52L196.08 84.87Z" />
		<path id="Layer" class="shp0" d="M137.11 230.77L183.92 230.77L183.92 128.24L137.11 128.24L137.11 230.77Z" />
		<path id="Layer" fill-rule="evenodd" class="shp0" d="M194.03 85.26C193.68 104.44 178.03 119.8 158.85 119.8C139.67 119.8 124.02 104.44 123.66 85.26L194.03 85.26Z" />
		<path id="Layer" fill-rule="evenodd" class="shp0" d="M20.69 85.57L20.69 183.28C26.27 232.58 83.4 246.56 114.36 214.55C147.72 175.73 118.45 124.2 75.13 123.68L75.13 168.67C85.37 168.42 86.16 178.2 82.35 182.29C77.37 186.55 70.15 185.17 68.55 178.17L68.18 85.63L20.69 85.57Z" />
		<path id="Layer" fill-rule="evenodd" class="shp1" d="M299.28 35.35C322.92 35.31 342.11 54.46 342.13 78.1C342.16 101.74 323.01 120.92 299.36 120.93C275.72 120.94 256.55 101.78 256.55 78.14C256.61 54.55 275.7 35.44 299.28 35.35Z" />
		<path id="Layer" fill-rule="evenodd" class="shp1" d="M385.87 5.19C424.13 6.15 456.5 28.26 457.74 64.03L480.01 35.73C477.65 8.99 426.64 -9.07 385.87 5.19Z" />
		<path id="Layer" class="shp1" d="M22.23 264.33L26.55 264.33L26.55 297.33L21.59 297.33L4.77 270.68L4.68 297.33L0.36 297.33L0.36 264.33L5.68 264.34L22.14 290.99L22.23 264.33Z" />
		<path id="Layer" fill-rule="evenodd" class="shp1" d="M38.7 280.58L34.92 280.58C34.77 278.21 35.8 275.91 37.68 274.45C39.82 273.1 42.33 272.46 44.85 272.61C46.62 272.58 48.38 272.92 50 273.63C52.36 274.52 53.88 276.82 53.78 279.33L53.78 293.11C53.78 294.09 54.24 294.58 55.16 294.58L56.45 294.41L56.45 297.35L55.37 297.65C55 297.75 54.62 297.8 54.24 297.81C52.98 297.93 51.73 297.51 50.8 296.65C50.23 295.94 49.95 295.04 50.01 294.13C49.09 295.14 48.02 296.01 46.84 296.7C45.13 297.64 43.22 298.12 41.27 298.09C39.3 298.14 37.38 297.44 35.91 296.13C34.49 294.83 33.71 292.98 33.78 291.06C33.75 289.59 34.15 288.13 34.94 286.88C36.39 284.89 38.67 283.65 41.14 283.54L47.76 282.7C48.28 282.69 48.79 282.49 49.18 282.15C49.7 281.5 49.95 280.68 49.87 279.85C49.87 277.22 48 275.9 44.25 275.9C42.62 275.76 41.02 276.37 39.89 277.56C39.25 278.45 38.85 279.49 38.74 280.58M49.85 288.91L49.85 285C49.32 285.39 48.7 285.65 48.05 285.77C47.19 285.98 45.69 286.22 43.54 286.49C41.99 286.56 40.48 287.03 39.17 287.85C38.42 288.45 38 289.35 38.01 290.3C37.94 291.44 38.31 292.56 39.06 293.42C39.97 294.21 41.16 294.59 42.36 294.49C44.24 294.52 46.08 293.94 47.6 292.85C48.98 291.99 49.84 290.49 49.87 288.86" />
		<path id="Layer" class="shp1" d="M44.44 266.25L41.4 270.49L37.81 270.48L42.32 264.05L46.63 264.05L51.14 270.48L47.46 270.47L44.44 266.25Z" />
		<path id="Layer" class="shp1" d="M81.61 281L81.61 297.37L77.58 297.37L77.58 282.53C77.72 280.88 77.35 279.23 76.53 277.8C75.51 276.63 73.98 276.03 72.43 276.19C70.96 276.16 69.52 276.7 68.44 277.72C66.88 279.12 66.1 281.28 66.1 284.2L66.1 297.34L62.05 297.34L62.05 273.24L65.81 273.24L65.81 276.65C66.52 275.73 67.35 274.9 68.27 274.19C69.69 273.16 71.41 272.61 73.17 272.63C75.16 272.51 77.14 273.05 78.81 274.15C80.68 275.53 81.61 277.8 81.61 280.95" />
		<path id="Layer" fill-rule="evenodd" class="shp1" d="M108.91 273.24L108.91 295.31C109.05 297.84 108.56 300.36 107.49 302.66C105.78 305.85 102.51 307.44 97.69 307.44C95.84 307.5 94.01 307.11 92.35 306.29C90.13 305.07 88.68 302.81 88.49 300.28L92.54 300.28C92.72 301.43 93.35 302.47 94.3 303.15C95.4 303.85 96.68 304.2 97.98 304.13C100.92 304.13 102.91 303.12 103.95 301.1C104.65 299.45 104.97 297.66 104.87 295.87L104.87 294.65L104.78 294.83C104.18 295.79 103.33 296.58 102.33 297.12C101.1 297.81 99.7 298.16 98.29 298.12C94.87 298.28 91.64 296.53 89.91 293.57C88.36 290.85 87.59 287.75 87.71 284.62C87.58 281.53 88.53 278.5 90.39 276.03C92.15 273.79 94.89 272.53 97.75 272.65C99.5 272.58 101.22 273.1 102.65 274.12C103.55 274.85 104.32 275.72 104.94 276.7L105.03 273.3L108.91 273.24ZM92.01 285.18C91.9 287.53 92.47 289.87 93.64 291.91C94.64 293.58 96.48 294.57 98.42 294.49C100 294.53 101.53 293.95 102.69 292.88C104.36 291.15 105.21 288.8 105.03 286.41C105.11 284.18 104.76 281.96 103.97 279.88C103.01 277.74 100.91 276.33 98.56 276.26C96.21 276.19 94.02 277.48 92.94 279.57C92.25 281.36 91.94 283.29 92.02 285.22" />
		<path id="Layer" class="shp1" d="M149 281L149 297.37L145 297.37L145 282.53C145.14 280.88 144.77 279.23 143.95 277.8C142.93 276.63 141.4 276.03 139.85 276.19C138.37 276.16 136.94 276.7 135.86 277.72C134.3 279.12 133.52 281.28 133.52 284.2L133.52 297.34L129.47 297.34L129.47 273.24L133.23 273.24L133.23 276.65C133.94 275.73 134.77 274.9 135.69 274.19C137.11 273.16 138.83 272.61 140.59 272.63C142.59 272.53 144.57 273.08 146.24 274.19C148.1 275.58 149.04 277.85 149.05 281" />
		<path id="Layer" class="shp1" d="M160.48 268.94L156.44 268.94L156.44 264.33L160.48 264.33L160.48 268.94ZM160.48 297.33L156.44 297.33L156.44 273.24L160.48 273.24L160.48 297.33Z" />
		<path id="Layer" class="shp1" d="M186.78 297.33L182.9 297.33L182.9 293.82L182.73 293.73C182 295.05 180.94 296.17 179.67 296.97C178.29 297.74 176.72 298.11 175.14 298.05C173.3 298.12 171.48 297.57 169.98 296.5C168.19 295.05 167.21 292.82 167.37 290.52L167.37 273.24L171.42 273.24L171.42 289.18C171.28 290.67 171.77 292.14 172.75 293.27C173.67 294.1 174.88 294.51 176.11 294.42C178.2 294.54 180.19 293.51 181.31 291.75C182.31 290.15 182.81 288.3 182.74 286.42L182.74 273.18L186.79 273.18L186.78 297.33Z" />
		<path id="Layer" fill-rule="evenodd" class="shp1" d="M211.2 297.33L207.32 297.33L207.32 264.33L211.37 264.33L211.37 276.27C212.95 273.93 215.61 272.55 218.44 272.59C221.3 272.5 224.03 273.78 225.79 276.03C227.63 278.48 228.56 281.49 228.42 284.54C228.52 287.66 227.76 290.75 226.21 293.46C224.5 296.44 221.28 298.22 217.85 298.06C216.23 298.13 214.63 297.66 213.3 296.73C212.46 296.05 211.76 295.22 211.23 294.28L211.2 297.33ZM224.23 285.19C224.31 283.28 224 281.37 223.31 279.59C222.36 277.38 220.11 276.02 217.72 276.19C215.29 276.08 213.07 277.58 212.26 279.87C211.48 281.97 211.12 284.2 211.21 286.44C211.03 288.82 211.88 291.17 213.55 292.88C214.7 293.96 216.23 294.55 217.81 294.53C219.76 294.64 221.61 293.66 222.63 292.01C223.79 289.95 224.35 287.61 224.24 285.26" />
		<path id="Layer" fill-rule="evenodd" class="shp1" d="M238.16 280.62C238.16 280.61 238.17 280.59 238.17 280.58L238.26 280.58M234.49 280.58C234.33 278.21 235.36 275.91 237.24 274.45C239.38 273.1 241.89 272.46 244.41 272.61C246.18 272.58 247.94 272.92 249.56 273.63C251.91 274.52 253.43 276.82 253.33 279.33L253.33 293.11C253.33 294.09 253.79 294.58 254.71 294.58L255.94 294.41L255.94 297.35L254.86 297.65C254.49 297.75 254.11 297.8 253.73 297.81C252.47 297.93 251.22 297.51 250.29 296.65C249.72 295.94 249.44 295.04 249.5 294.13C248.58 295.14 247.51 296.01 246.33 296.7C244.62 297.64 242.71 298.12 240.76 298.09C238.77 298.17 236.83 297.48 235.33 296.16C233.91 294.87 233.14 293.02 233.21 291.1C233.17 289.62 233.57 288.17 234.36 286.92C235.82 284.93 238.1 283.69 240.57 283.57L247.18 282.74C247.71 282.73 248.21 282.53 248.61 282.19C249.13 281.54 249.38 280.71 249.29 279.88C249.29 277.25 247.42 275.94 243.68 275.94C242.05 275.8 240.44 276.41 239.32 277.59C238.68 278.47 238.29 279.5 238.17 280.58L234.49 280.58ZM249.28 288.94L249.28 285.03C248.75 285.42 248.13 285.69 247.48 285.81C246.61 286.01 245.11 286.26 242.97 286.53C241.42 286.6 239.91 287.07 238.59 287.89C237.85 288.49 237.43 289.39 237.44 290.34C237.36 291.47 237.73 292.59 238.48 293.45C239.39 294.25 240.59 294.63 241.79 294.52C243.67 294.56 245.5 293.98 247.03 292.89C248.41 292.03 249.26 290.52 249.29 288.89" />
		<path id="Layer" class="shp1" d="M244.6 270.03L238.53 263.57L243.59 263.57L247.64 270.03L244.6 270.03Z" />
		<path id="Layer" class="shp1" d="M281.18 281L281.18 297.37L277.13 297.37L277.13 282.53C277.27 280.88 276.9 279.23 276.08 277.8C275.06 276.63 273.53 276.03 271.98 276.19C270.5 276.16 269.07 276.71 267.99 277.72C266.43 279.12 265.64 281.28 265.64 284.2L265.64 297.34L261.6 297.34L261.6 273.24L265.36 273.24L265.36 276.65C266.07 275.73 266.9 274.9 267.81 274.19C269.24 273.16 270.96 272.61 272.72 272.63C274.72 272.53 276.7 273.08 278.37 274.19C280.24 275.58 281.18 277.85 281.18 281Z" />
		<path id="Layer" class="shp1" d="M320.99 281.32L317.03 281.32C316.88 279.89 316.25 278.56 315.24 277.53C314.17 276.59 312.76 276.1 311.33 276.18C309.21 276.1 307.22 277.22 306.18 279.08C305.14 280.97 304.63 283.11 304.71 285.28C304.62 287.39 305.04 289.49 305.94 291.41C306.96 293.42 309.09 294.64 311.34 294.49C312.72 294.49 314.05 293.94 315.02 292.96C316.15 291.84 316.88 290.37 317.09 288.78L321.05 288.78C320.86 291.02 320.01 293.16 318.6 294.91C316.78 297.07 314.06 298.26 311.25 298.14C308.25 298.27 305.35 297.03 303.39 294.76C301.39 292.29 300.36 289.17 300.5 286C300.31 282.62 301.28 279.29 303.25 276.54C305.4 273.9 308.69 272.46 312.08 272.68C314.63 272.53 317.11 273.57 318.8 275.49C320.17 277.17 320.98 279.24 321.1 281.42" />
		<path id="Layer" class="shp1" d="M346.03 281L346.03 297.37L341.99 297.37L341.99 281.6C342.11 280.22 341.78 278.84 341.07 277.65C340.09 276.57 338.66 276.02 337.21 276.18C335.51 276.11 333.86 276.73 332.62 277.89C331.09 279.61 330.33 281.89 330.51 284.18L330.51 297.33L326.42 297.33L326.42 264.33L330.47 264.33L330.47 276.45C331.19 275.52 332.04 274.69 332.99 274C334.33 273.08 335.92 272.6 337.54 272.61C339.54 272.51 341.52 273.06 343.19 274.18C345.09 275.54 346.03 277.81 346.03 281Z" />
		<path id="Layer" fill-rule="evenodd" class="shp1" d="M356.89 280.62C356.9 280.61 356.9 280.59 356.9 280.58L356.93 280.58M353.17 280.58C353.01 278.21 354.04 275.91 355.93 274.45C358.07 273.1 360.58 272.46 363.11 272.61C364.88 272.58 366.64 272.92 368.26 273.63C370.61 274.52 372.14 276.82 372.03 279.33L372.03 293.11C372.03 294.09 372.49 294.58 373.42 294.58L374.64 294.41L374.64 297.35L373.57 297.65C373.2 297.75 372.82 297.8 372.44 297.81C371.18 297.93 369.92 297.51 368.99 296.65C368.43 295.94 368.16 295.03 368.22 294.13C367.3 295.14 366.23 296.01 365.05 296.7C363.34 297.64 361.42 298.11 359.48 298.09C357.49 298.17 355.55 297.48 354.05 296.16C352.64 294.87 351.87 293.01 351.94 291.1C351.9 289.62 352.3 288.17 353.09 286.92C354.55 284.93 356.83 283.69 359.3 283.57L365.92 282.74C366.44 282.73 366.94 282.53 367.34 282.19C367.86 281.54 368.11 280.71 368.02 279.88C368.02 277.25 366.15 275.94 362.41 275.94C360.78 275.8 359.17 276.41 358.05 277.59C357.42 278.48 357.02 279.5 356.9 280.58L353.17 280.58ZM368.02 288.94L368.02 285.03C367.49 285.42 366.87 285.69 366.22 285.81C365.36 286.01 363.85 286.26 361.71 286.53C360.16 286.6 358.65 287.07 357.34 287.89C356.6 288.49 356.17 289.39 356.18 290.34C356.1 291.47 356.48 292.6 357.23 293.45C358.14 294.25 359.33 294.63 360.54 294.52C362.41 294.55 364.24 293.98 365.77 292.89C367.15 292.03 368.01 290.52 368.04 288.89" />
		<path id="Layer" class="shp1" d="M362.67 266.25L359.63 270.49L356.04 270.48L360.55 264.05L364.86 264.05L369.37 270.48L365.69 270.47L362.67 266.25Z" />
		<path id="Layer" class="shp1" d="M399.85 281L399.85 297.37L395.8 297.37L395.8 282.53C395.94 280.88 395.57 279.23 394.75 277.8C393.73 276.63 392.2 276.03 390.65 276.19C389.17 276.16 387.74 276.71 386.66 277.72C385.1 279.12 384.32 281.28 384.32 284.2L384.32 297.34L380.27 297.34L380.27 273.24L384.03 273.24L384.03 276.65C384.74 275.73 385.57 274.9 386.49 274.19C387.91 273.16 389.63 272.61 391.39 272.63C393.39 272.53 395.37 273.08 397.04 274.19C398.91 275.58 399.85 277.85 399.85 281Z" />
		<path id="Layer" class="shp1" d="M442.39 264.34L447.44 264.33L435.41 297.33L430.61 297.33L418.58 264.33L423.54 264.33L433.02 292.41L442.39 264.34Z" />
		<path id="Layer" class="shp1" d="M457.48 268.94L453.44 268.94L453.44 264.33L457.48 264.33L457.48 268.94ZM457.48 297.33L453.44 297.33L453.44 273.24L457.48 273.24L457.48 297.33Z" />
		<path id="Layer" fill-rule="evenodd" class="shp1" d="M480.64 289.8L484.69 289.8C484.49 290.82 484.13 291.79 483.62 292.69C482.86 294.18 481.74 295.44 480.36 296.37C479.68 296.85 478.93 297.23 478.15 297.51C476.75 297.94 475.3 298.15 473.84 298.11C470.83 298.25 467.93 297 465.97 294.73C463.96 292.26 462.94 289.15 463.07 285.97C462.89 282.6 463.86 279.26 465.83 276.52C467.98 273.88 471.26 272.44 474.66 272.65C477.69 272.48 480.6 273.9 482.33 276.4C484.08 278.9 484.95 282.31 484.95 286.64L467.39 286.64C467.25 288.74 467.87 290.82 469.15 292.48C471.83 295.05 475.99 295.22 478.87 292.89C479.81 292.13 480.43 291.06 480.63 289.87M467.45 283.44C467.45 283.41 467.45 283.37 467.45 283.34L467.39 283.34M480.87 283.34C480.95 281.58 480.41 279.85 479.35 278.44C478.08 277.05 476.27 276.25 474.39 276.25C472.5 276.25 470.7 277.05 469.42 278.44C468.16 279.77 467.46 281.52 467.45 283.34L480.87 283.34Z" />
		<path id="Layer" class="shp1" d="M474.17 266.29L471.07 270.49L467.46 270.49L471.97 264.06L476.3 264.06L480.81 270.49L477.13 270.49L474.17 266.29ZM476.46 305.52L472.41 305.52L472.41 300.91L476.46 300.91L476.46 305.52Z" />
		<path id="Layer" class="shp1" d="M500.62 276.63L496.75 276.63L496.75 292.26C496.68 292.93 497.03 293.57 497.63 293.87C498.12 294.05 498.63 294.13 499.15 294.11L500.62 294.11L500.62 297.33L497.58 297.7C496.09 297.85 494.62 297.29 493.62 296.18C492.93 295.07 492.61 293.79 492.7 292.5L492.7 276.68L489.39 276.68L489.39 273.29L492.7 273.29L492.7 266.57L496.75 266.57L496.75 273.29L500.62 273.29L500.62 276.63Z" />
	</g>
</svg>